<?xml version="1.0" encoding="utf-8"?>
<!-- Generator: Adobe Illustrator 25.0.1, SVG Export Plug-In . SVG Version: 6.00 Build 0)  -->
<svg version="1.0" id="katman_1" xmlns="http://www.w3.org/2000/svg" xmlns:xlink="http://www.w3.org/1999/xlink" x="0px" y="0px"
	 viewBox="0 0 186 126" style="enable-background:new 0 0 186 126;" xml:space="preserve">
<style type="text/css">
	.st0{fill:#2F1C6A;}
</style>
<path class="st0" d="M63.1,56.9h2.8v12.5h-2.8v-5.3h-4.7v5.3h-2.8V56.9h2.8v4.8h4.7V56.9z"/>
<path class="st0" d="M72.5,63.1c0,0.6,0.1,1.2,0.2,1.7c0.2,0.5,0.4,0.9,0.6,1.3c0.3,0.4,0.6,0.6,1,0.8c0.4,0.2,0.9,0.3,1.4,0.3
	c0.5,0,1-0.1,1.4-0.3c0.4-0.2,0.8-0.5,1-0.8c0.3-0.4,0.5-0.8,0.6-1.3c0.2-0.5,0.2-1,0.2-1.7c0-0.6-0.1-1.2-0.2-1.7
	c-0.2-0.5-0.4-0.9-0.6-1.3c-0.3-0.4-0.6-0.6-1-0.8c-0.4-0.2-0.9-0.3-1.4-0.3c-0.5,0-1,0.1-1.4,0.3c-0.4,0.2-0.8,0.5-1,0.8
	c-0.3,0.4-0.5,0.8-0.6,1.3C72.6,62,72.5,62.5,72.5,63.1z M82,63.1c0,1.1-0.2,2-0.5,2.8c-0.3,0.8-0.8,1.5-1.3,2c-0.6,0.5-1.2,1-2,1.2
	c-0.8,0.3-1.6,0.4-2.5,0.4c-0.9,0-1.7-0.1-2.4-0.4c-0.8-0.3-1.4-0.7-2-1.2c-0.6-0.5-1-1.2-1.3-2c-0.3-0.8-0.5-1.7-0.5-2.8
	c0-1.1,0.2-2,0.5-2.8c0.3-0.8,0.8-1.5,1.4-2c0.6-0.6,1.2-1,2-1.2c0.8-0.3,1.5-0.4,2.4-0.4c0.9,0,1.7,0.1,2.4,0.4
	c0.8,0.3,1.4,0.7,2,1.2c0.6,0.6,1,1.2,1.3,2C81.9,61.1,82,62.1,82,63.1z"/>
<path class="st0" d="M89.1,67.2c0.4,0,0.7,0,1-0.1c0.3-0.1,0.5-0.2,0.6-0.3c0.2-0.1,0.3-0.2,0.3-0.4c0.1-0.2,0.1-0.3,0.1-0.5
	c0-0.4-0.2-0.7-0.6-1c-0.4-0.3-1-0.6-2-0.9c-0.4-0.1-0.8-0.3-1.2-0.5c-0.4-0.2-0.8-0.4-1.1-0.7c-0.3-0.3-0.6-0.6-0.8-1
	c-0.2-0.4-0.3-0.9-0.3-1.5s0.1-1.1,0.3-1.6c0.2-0.5,0.5-0.9,0.9-1.2c0.4-0.3,0.9-0.6,1.4-0.7c0.6-0.2,1.2-0.3,1.9-0.3
	c0.8,0,1.6,0.1,2.2,0.3c0.6,0.2,1.1,0.4,1.5,0.6l-0.8,2.2c-0.3-0.2-0.7-0.3-1.2-0.5C91,59.1,90.5,59,89.9,59c-0.7,0-1.2,0.1-1.5,0.3
	c-0.3,0.2-0.4,0.5-0.4,0.9c0,0.2,0.1,0.4,0.2,0.6c0.1,0.2,0.3,0.3,0.5,0.4c0.2,0.1,0.4,0.2,0.7,0.3c0.3,0.1,0.5,0.2,0.9,0.3
	c0.6,0.2,1.2,0.5,1.7,0.7c0.5,0.2,0.9,0.5,1.2,0.8c0.3,0.3,0.6,0.7,0.7,1.1c0.2,0.4,0.2,0.9,0.2,1.5c0,1.2-0.4,2.1-1.2,2.7
	c-0.8,0.6-2.1,1-3.7,1c-0.6,0-1.1,0-1.5-0.1c-0.4-0.1-0.8-0.1-1.2-0.2c-0.3-0.1-0.6-0.2-0.9-0.3c-0.2-0.1-0.5-0.2-0.6-0.3l0.8-2.2
	c0.4,0.2,0.8,0.4,1.4,0.5C87.6,67.1,88.3,67.2,89.1,67.2z"/>
<path class="st0" d="M106.4,56.9v2.4h-3.8v10.1h-2.8V59.3h-3.8v-2.4H106.4z"/>
<path class="st0" d="M109.6,69.4h2.8V56.9h-2.8V69.4z"/>
<path class="st0" d="M125,69.4c-0.8-1.4-1.7-2.8-2.6-4.2c-0.9-1.4-1.9-2.7-3-3.9v8.2h-2.8V56.9h2.3c0.4,0.4,0.8,0.9,1.3,1.5
	c0.5,0.6,1,1.2,1.5,1.8c0.5,0.7,1,1.3,1.5,2c0.5,0.7,1,1.4,1.4,2v-7.4h2.8v12.5H125z"/>
<path class="st0" d="M137.6,59.1c-1.3,0-2.3,0.4-2.8,1.1c-0.6,0.7-0.9,1.7-0.9,3c0,0.6,0.1,1.2,0.2,1.7c0.1,0.5,0.4,0.9,0.6,1.3
	c0.3,0.4,0.6,0.6,1.1,0.8c0.4,0.2,0.9,0.3,1.5,0.3c0.3,0,0.6,0,0.8,0c0.2,0,0.4,0,0.6-0.1v-4.3h2.8v6.2c-0.3,0.1-0.9,0.3-1.6,0.4
	c-0.7,0.1-1.7,0.2-2.8,0.2c-0.9,0-1.8-0.1-2.6-0.4c-0.8-0.3-1.4-0.7-2-1.3c-0.5-0.6-1-1.2-1.3-2c-0.3-0.8-0.4-1.7-0.4-2.8
	c0-1,0.2-2,0.5-2.8c0.3-0.8,0.8-1.5,1.3-2c0.6-0.6,1.2-1,2-1.3c0.8-0.3,1.6-0.4,2.4-0.4c0.6,0,1.1,0,1.6,0.1
	c0.5,0.1,0.9,0.2,1.2,0.3c0.3,0.1,0.6,0.2,0.8,0.3c0.2,0.1,0.4,0.2,0.5,0.3l-0.8,2.2c-0.4-0.2-0.8-0.4-1.3-0.5
	C138.8,59.1,138.2,59.1,137.6,59.1z"/>
<path class="st0" d="M145.5,69.4V56.9h8.4v2.4h-5.6v2.4h5V64h-5v3h6v2.4H145.5z"/>
<path class="st0" d="M161.6,59.1c-0.2,0-0.4,0-0.5,0c-0.2,0-0.3,0-0.5,0v3.4h0.8c1.1,0,1.8-0.1,2.3-0.4c0.5-0.3,0.7-0.7,0.7-1.3
	c0-0.6-0.2-1-0.7-1.3C163.2,59.3,162.5,59.1,161.6,59.1z M161.4,56.8c1.9,0,3.3,0.3,4.3,1c1,0.7,1.5,1.7,1.5,3.1
	c0,0.9-0.2,1.6-0.6,2.1c-0.4,0.5-1,1-1.7,1.3c0.3,0.3,0.5,0.7,0.8,1.1c0.3,0.4,0.6,0.8,0.8,1.3c0.3,0.4,0.5,0.9,0.8,1.4
	c0.3,0.5,0.5,0.9,0.7,1.4h-3.1c-0.2-0.4-0.5-0.8-0.7-1.2c-0.2-0.4-0.5-0.8-0.7-1.2c-0.2-0.4-0.5-0.8-0.7-1.1c-0.2-0.4-0.5-0.7-0.7-1
	h-1.4v4.6h-2.8V57.1c0.6-0.1,1.2-0.2,1.9-0.3C160.3,56.8,160.9,56.8,161.4,56.8z"/>
<path class="st0" d="M18,62V48l7.1,3.8v6.3l9.4,0l7.2,3.9H18z M36.4,57v-9l7.3,3.7v9.5L36.4,57z M36.4,74.1v-6.3l-9.5,0
	c0,0-7.3-4-7.3-4L43.7,64v14L36.4,74.1z M18,74.1l0-9.2l7.1,4.1v8.7L18,74.1z"/>
</svg>
