<?xml version="1.0" encoding="utf-8"?>
<!-- Generator: Adobe Illustrator 24.3.0, SVG Export Plug-In . SVG Version: 6.00 Build 0)  -->
<svg version="1.0" id="katman_1" xmlns="http://www.w3.org/2000/svg" xmlns:xlink="http://www.w3.org/1999/xlink" x="0px" y="0px"
	 viewBox="0 0 282 200.55" style="enable-background:new 0 0 282 200.55;" xml:space="preserve">
<style type="text/css">
	.st0{fill:none;}
	.st1{fill-rule:evenodd;clip-rule:evenodd;fill:#1F36C7;}
</style>
<g id="logo-sketch">
	<path id="background" class="st0" d="M31-9.72h220v220H31V-9.72z	">
<animate  accumulate="none" additive="replace" attributeName="visibility" begin="0;o1.end" calcMode="linear" dur="8s" fill="remove" from="hide" id="o1" restart="always" to="hide">
			</animate>
	</path>
	<g id="text" transform="translate(49 150)">
		<g id="Mask">
			<path id="path-1" class="st1" d="M145.9,0.58c2.1,0,3.5,1.2,3.6,2.7c0,1.1-0.9,2-2,2c-2.4,0-1.8-1.8-2.8-1.8
				c-2.24,0-4,3.44-5.68,7.13l-0.26,0.57l-0.38,0.85L138,12.88c-0.9,1.8-1.3,2.1-2,2.1c-1.7,0-2-4.5-2.7-6.5c-1.4,3-4.2,6.5-8.6,6.5
				c-2.6-0.1-5.1-1.4-5.1-5.4c0-4.5,3-7.7,6-7.7c2.3,0,3.8,2.4,3.8,4c-0.1,4.4-6,4.5-6,5.4s1.5,1.2,2.4,1.2c3.8,0,6.3-4.9,7.2-8.3
				c0.2-0.6,0.7-1.8,1.8-1.8c1.2,0,0.6,7.4,2.3,7.4C138.2,9.78,139.6,0.58,145.9,0.58z M86.7-9.52c2-0.1,3.6,1.8,3.8,4.8
				c0.4,8-2.3,11.2-3.7,14.1c0.3,1.1,2.2,3,4,3c0.7,0,1.5-0.3,1.7-0.6c-0.2-0.5-0.3-1-0.3-1.9c0-4.6,3.1-8.4,5.7-8.4
				c2.1,0,3.3,2.7,3.3,4.5c0,2.1-1.8,3.8-4.5,5.4c0.5,0.5,1.4,0.8,2.1,0.8c3.8,0.1,5.9-4.5,7.4-8.6c0.3-0.8,0.8-1.9,1.7-1.9
				c1.6,0,2.2,10.4,4.9,10.4c1.1,0,2.1-2.3,2.1-4.1c0.1-1.4-0.4-1.5-0.4-3.4c0-2.1,1.1-3.9,2.7-3.9c1,0,1.3,0.9,1.3,2
				c-0.1,4.2-3.2,12-7.8,12c-3.4,0-3.1-5.8-4.3-5.8c-1.3,0-3.2,5.8-9.9,5.8c-1.1,0-2.3-0.5-3.2-1.6c-1.6,1.1-3,1.5-4.5,1.5
				c-2.5,0-3.6-2.5-4.6-2.5c-1.2,0-2.6,2.5-6.6,2.5c-3.2,0-3.8-4.2-4.9-4.2c-1,0-2.6,4.2-4.3,4.2c-1.37,0-2.21-1.74-3-3.52
				l-0.24-0.53c-0.75-1.68-1.5-3.25-2.66-3.25c-0.91,0-2.8,1.69-4.71,3.44l-0.52,0.48c-1.91,1.74-3.75,3.38-4.56,3.29
				c-0.7-0.1-1-0.5-0.9-1.2c0.1-0.9,1-3.4,1.3-4.5c0.6-2,1.1-4.2,1.4-4.9c0.2-0.7,1-1.2,1.6-1.1c0.3,0,0.4,0.5,0.5,1
				c0.3,1.6,0.8,3.3,1.3,3.3c0.9,0,4.1-5.8,5.9-5.8c2.3,0,2.5,9.2,5.5,9.2c1,0,1.7-1.2,2.4-2.6c0.1-2.4,0.8-5.9,2.8-5.9
				c1.4,0,2,3.1,1,5.8c-0.1,3.2,2.1,4,3.5,4c1,0,2.7-0.3,4.1-2.4c-0.8-1.7-1.3-5.2-1.4-6.4C81.4-3.42,83.9-9.42,86.7-9.52z
				 M48.2-7.52c1.2-0.4,1.7,0.2,2.2,1.6c0.6,2.1,0.6,4.9,0.4,8.8c-0.3,5.4-3.1,11.9-10,11.7c-6-0.1-8.6-3.9-8.8-9.6
				c-0.1-2.7,0.1-5.4,1.3-9.2c0.7-2,1.2-2.7,3.1-3.1c1.5-0.3,1.3,1.2,1,3c-0.8,3.9-1.1,5.8-0.9,10.3c0.3,4.7,2.5,6.6,4.9,6.6
				c3.7,0.1,5.3-2.8,6-7.1c0.5-3.4,0.1-5-0.2-6.1c-0.2-0.6-0.8-1.9-0.9-2.9C45.9-5.72,47.1-7.22,48.2-7.52z M96.9,4.58
				c-0.6-0.1-2,0.6-2,2.7c0,1.7,0.6,2.5,0.9,2.8c2-0.6,2.5-2.2,2.4-3.5C98.2,5.48,97.6,4.58,96.9,4.58z M124.7,4.48
				c-2.6,0-2.4,4.1-2,5c1.9-0.3,3.2-1.4,3.5-2.4S126.1,4.48,124.7,4.48z M86.92-5.63L86.8-5.62c-1.3,0.1-1.9,4.2-1.7,8.5
				c0.2,2.8,0.6,3.2,1,3.2c0.7,0,2.5-5.1,2.3-9.1c-0.1-1.8-0.6-2.7-1.6-2.6L86.92-5.63z M75.3-8.72c1.2,0,2,0.7,2.1,1.8
				c0.2,1.5-0.9,3.1-2.4,3.1c-1.3,0-1.9-0.9-2.1-2C72.8-7.42,74-8.72,75.3-8.72z"/>
		</g>
	</g>
	<path id="fish" class="st1" d="M149.7,119.48c-0.4-0.7-0.1-1.9-1.2-1.9c-0.7,0-0.8,0.6-0.9,1.1c-1.5-0.5-2.8-0.7-4-0.7
		c-0.8,0-1.5,0.1-2.2,0.3c-0.4-0.7-2.2-2.1-3.7-2.6c-0.6,3.3-3.5,5.8-7.8,6.2c-0.2,2.1-1.9,2.7-3.2,2.7c-0.9,0-2.4-0.3-2.5-0.7
		c-0.5-3.1-2.8-4.8-3.9-5.2c0,0.3,0.1,0.7,0.1,1c0,2.6-1.8,4.2-5.1,4.2c-0.5,0-1.2,0-1.7-0.1c3.8,4.2,6.5,2.7,8.2,3.5
		c2.3,1,4.2,4.3,11.6,4.3c2.7,0,5.4-1.1,7.2-2.2c0.3,1.1,1.4,2.1,3.3,2.1c3.1,0,4.9-1,4.9-1.8c0-0.2,0-0.5-0.6-0.5
		c-0.5,0-0.5,0.1-2.2,0.1c-2,0-5.2-0.8-6.7-4.3c-0.3-0.6-0.7-0.6-0.8-0.6c-1,0-2.6,3.6-8.9,3.6c-2.7,0-3.9-1-3.9-1.2
		c0,0,0-0.1,0.1-0.1c0.3,0,1.2,0.1,2.4,0.1c4,0,7.2-1.9,9.2-4c0.7-0.8,1-0.9,1.6-0.9c0.5,0,1,0.4,1.3,1.1c0.9,2.3,3,4.2,5.2,4.2
		c3,0,3.1-5.2,3.8-5.5c0.1,0,0.3,0.1,0.4,0.1c0.4,0,0.9-0.3,0.9-0.9C150.7,120.08,149.8,119.88,149.7,119.48L149.7,119.48z
		 M144.7,123.38c-0.8,0-1.4-0.6-1.4-1.4c0-0.8,0.6-1.5,1.4-1.5s1.4,0.7,1.4,1.4C146.2,122.78,145.5,123.38,144.7,123.38z	">
<animate  accumulate="none" additive="replace" attributeName="fill" begin="o1.begin+4s" calcMode="linear" dur="1s" fill="remove" restart="always" values="#1F36C7;#00D7C4;#1F36C7">
			</animate>
	</path>
	<path id="chilli_pepper" class="st1" d="M134.3,109.48c0.7,0,1,0.6,1.1,1.2c0.2-0.2,0.5-0.3,0.8-0.3c0.7,0,1.1,0.5,1.1,1.1
		c0,0.4-0.2,0.7-0.5,0.9c0.4,0.2,0.7,0.5,0.7,0.9c0,0.5-0.4,0.9-1,0.9c-0.5,0-0.9-0.6-1.4-0.6c-0.3,0-0.7,0.1-0.8,0.3
		c0.2,0.5,0.3,0.9,0.3,1.4c0,2.6-3.5,4.7-7.2,4.7c-3.6,0-5-2.1-5-3c0-0.2,0.1-0.3,0.4-0.3c0.6,0,0.7,0.2,2.4,0.2c3.9,0,2.5-5,6.2-5
		c0.5,0,1.6,0.3,2,1c0.3-0.3,0.4-0.7,0.4-1c0-0.6-0.4-1-0.4-1.5S133.8,109.58,134.3,109.48z	">
<animate  accumulate="none" additive="replace" attributeName="fill" begin="o1.begin+4.05s" calcMode="linear" dur="1s" fill="remove" restart="always" values="#1F36C7;#EB0000;#1F36C7">
			</animate>
	</path>
	<path id="swirl" class="st1" d="M111.1,106.88c4.4,0,7.8,3.7,7.8,9c0,2.4-1.3,5.9-6.6,5.9c-6.3,0-10.1-5.3-10.1-8.7
		c0-2.9,1.9-4.7,3.1-5c-1.3,5.2,1.6,10.2,7.4,10.2c2.9,0,4.3-1.4,4.3-3.9c0-2.8-1.9-5.5-5.2-5.5c-1.6,0-2.8,0.9-2.8,2.2
		c0,2.1,1.8,3.4,3.7,3.4c1.2,0,2-0.5,2-1.3c0-0.1,0-0.3-0.1-0.4c-0.1,0.1-0.4,0.1-0.8,0.1c-1.5,0-2.7-0.8-2.7-1.7
		c0-0.7,0.5-1.1,1.1-1.1c2.2,0,3.7,2.2,3.7,3.8c0,1.6-1.2,3-3.2,3c-4.3,0-6.2-3.5-6.2-5.8C106.6,108.58,108.7,106.88,111.1,106.88z	
		">
<animate  accumulate="none" additive="replace" attributeName="fill" begin="o1.begin+4.1s" calcMode="linear" dur="1s" fill="remove" restart="always" values="#1F36C7;#EB0000;#1F36C7">
			</animate>
	</path>
	<g id="packaging">
		<path class="st1" d="M163.8,118.68c-0.9,0.7-3.1,2.3-6.8,2.3c-2,0-2.8-0.6-3.1-0.6c-0.4,0-0.8,0.4-1.2,0.8c-0.9,1-2,2.8-2,4.9
			c0,1.4,1.1,2.8,3.2,2.8c6.8,0,11.8-4.2,11.8-7.5C165.8,119.48,164.6,118.68,163.8,118.68z M160.3,125.18l-3.9,1.1
			c0.3-0.8,0.5-1.7,0.5-2.6c0-0.3,0-0.5-0.1-0.8h0.5c2.9,0,4.1-1.1,4.3-1.1s0.4,0.1,0.4,0.7C162,123.28,161.6,124.38,160.3,125.18
			L160.3,125.18z"/>
		<path class="st1" d="M158,119.48c1.6,0,3-0.4,3.9-1.2c0.3-0.2,0.4-0.6,0.4-1v-0.8c0-1-1.6-1.6-3.8-1.6c-2.6,0-4,1.2-4,1.7v1.6
			C154.5,118.78,156,119.48,158,119.48L158,119.48z"/>
		
			<animate  accumulate="none" additive="replace" attributeName="fill" begin="o1.begin+4.15s" calcMode="linear" dur="1s" fill="remove" restart="always" values="#1F36C7;#001F82;#1F36C7">
			</animate>
	</g>
	<path id="clothes" class="st1" d="M170.2,102.48c-5.3,0-3.9,4.5-10.1,5.9c-1.1,0.2-1.5,0.6-1.5,1.1c0,0.9,0.5,2.1,1.2,2.1
		c2.7,0,6.8-5.5,7.6-5.5c0.3,0,0.6,0,0.6,0.8c0,2-5.8,4.6-5.8,6c0,0.8,2,2.6,4.1,2.6c2.9,0,5.5-5.8,6.1-5.8c0.5,0,0.6,0.3,0.6,0.7
		c0,1.6-2,4.7-5.4,6c-0.7,0.3-0.8,0.6-0.8,0.8c0,0.8,0.9,1.9,1.7,1.9c1,0,7.7-5.8,7.7-10.4C176.4,104.38,173.1,102.48,170.2,102.48
		L170.2,102.48z M172.6,107.48c-0.4,0-0.8-0.1-1-0.3c-0.5-0.2-1.3-0.9-1.3-1.9s0.5-1.3,1-1.3c1.5,0,3.2,1.3,3.2,2.4
		C174.5,107.28,173.7,107.48,172.6,107.48z	">
<animate  accumulate="none" additive="replace" attributeName="fill" begin="o1.begin+4.2s" calcMode="linear" dur="1s" fill="remove" restart="always" values="#1F36C7;#9C44C0;#1F36C7">
			</animate>
	</path>
	<path id="spoon" class="st1" d="M122.6,109.88h-0.9c-0.3,0-0.8-0.1-1.1-0.3c-0.6-0.5-0.8-3.2-1.8-4.8c-1.2-1.8-2.5-2.3-4.2-2.3
		c-1.2,0-2.6,0.7-2.6,1.7c0,0.6,0.3,1,2.6,1.6c2.9,0.7,4.3,2.3,4.6,4.1c0.3,1.8,0.6,3.2,1.3,3.9c0.9,1,2.6,1.9,4.2,1.9
		c1.3,0,2.3-0.4,2.3-1.6C126.9,112.78,125.1,109.88,122.6,109.88z M124.5,113.78c-1.1,0-2.7-1.1-2.7-1.8c0-0.5,0.5-0.8,0.9-0.8
		c0.9,0,2.5,1.1,2.5,2C125.2,113.48,125,113.78,124.5,113.78z	">
<animate  accumulate="none" additive="replace" attributeName="fill" begin="o1.begin+4.25s" calcMode="linear" dur="1s" fill="remove" restart="always" values="#1F36C7;#E60067;#1F36C7">
			</animate>
	</path>
	<g id="wave">
		<path class="st1" d="M144.4,106.18c-0.7,0-0.7,1.1-0.7,1.5s0,0.5-0.3,0.5c-0.3,0-0.5-0.1-0.8-0.1c-0.2,0-0.4,0.2-0.4,0.5
			c0,1.5,1.9,2.7,3.8,2.7c2.5,0,3.7-1.1,4.4-1.1c0.3,0,0.4,0.3,0.4,0.5c0,0.4-0.4,0.9-0.4,1.1c0,0.6,1.2,0.1,1.2,0.8
			c0,0.9-1.5,1.6-3.8,1.6c-4.5,0-7.4-3.1-7.4-6c0-5.4,5.8-3.7,5.8-5.8c0-0.7-0.7-1.1-1.2-1.1c0.6-0.8,1.4-0.9,2.2-0.9
			c0.6,0,1.2,0.1,1.7,0.1c0.7,0,1.4-0.3,1.4-1.1c0-0.5-0.4-1.1-2.1-1.3c0.2-1.1,2.5-0.5,2.5-1.5c0-0.7-1.3-1.2-2.9-1.2
			c-6.2,0-10.6,5.1-10.6,10.6c0,5,3.6,10.5,10.3,10.5c6.5,0,9.6-5.3,9.6-9.3c-1.2,1.1-4.4,1.4-6,1.4
			C146.4,108.68,145.1,106.18,144.4,106.18z"/>
		<path class="st1" d="M149.5,106.88c1,0,1.7-0.8,1.7-1.7c0-1.4-1.4-2.7-3.5-2.7c0.4,0.4,0.5,0.7,0.5,1.1c0,0.5-0.3,1.1-0.3,1.7
			C147.9,106.18,148.5,106.88,149.5,106.88z M159.6,100.08c0.3,0.4,0.4,0.8,0.4,1.2c0,1-0.7,2-0.7,3c0,1.2,0.9,2.2,2.3,2.2
			c1.5,0,2.5-1.2,2.5-2.6C164,101.88,162.3,100.28,159.6,100.08z M152.4,96.28c0.5,0.6,0.7,1.2,0.7,1.9c0,1.6-1.2,3.2-1.2,4.7
			c0,2,1.3,3.3,3.2,3.3c2,0,3.2-1.7,3.2-3.6C158.3,99.88,156.2,96.98,152.4,96.28z M155.2,101.98c-0.5,0-0.9-0.4-0.9-0.9
			c0-0.3,0.2-0.7,0.2-1.1c0.1-0.5,0-0.9,0.3-0.9c0.6,0,1.3,1.1,1.3,1.8C156.1,101.48,155.8,101.98,155.2,101.98z"/>
		
			<animate  accumulate="none" additive="replace" attributeName="fill" begin="o1.begin+4.3s" calcMode="linear" dur="1s" fill="remove" restart="always" values="#1F36C7;#47C8FF;#1F36C7">
			</animate>
	</g>
	<g id="bowl">
		<path class="st1" d="M132.1,97.68c-1.6-0.6-2.3-1.5-2.7-3.4c-0.8,1.1-1.2,2.1-1.2,2.7c0,2.4,3.3,2.4,3.3,4c0,0.9-1.7,1.9-3.9,1.9
			c-2.5,0-4.3-0.4-5.9-2c-0.4-0.4-0.6-0.8-1.1-0.8c-0.6,0-0.9,1-0.9,2c0,3.4,3.3,7.5,7.9,7.5c5.7,0,8-3.9,8-7.1
			C135.7,100.58,135.3,98.88,132.1,97.68z M130.5,107.28c-0.5,0-0.6-0.2-0.6-0.7c0-0.3,0.1-0.9,0.1-1.4c0-1.2,0.5-1.1,1.7-1.7
			c0.9-0.4,1.2-0.9,1.5-0.9s0.6,0.2,0.6,0.7C133.8,105.08,131.8,107.28,130.5,107.28z"/>
		<path class="st1" d="M124.8,91.88c-0.6,0-1.6-0.6-2.6-1.4c-1.1,1.1-1.9,2.6-1.9,4.3c0,3.5,3.7,6.4,7.3,6.4c0.6,0,1.2-0.1,1.8-0.2
			c-2-0.2-3.2-1.7-3.2-3.5c0-2.3,2.6-4.4,2.6-6.2c0-2.2-2.7-2.4-2.7-4.2c0-1.5,2.6-2.6,2.5-5c0-1.4-1.4-3.1-3.3-4.1
			c0.3,0.6,0.5,1.4,0.5,1.9c0,2.8-5.4,4-5.4,6.2c0,2.8,5.2,3.9,5.2,5.2C125.6,91.58,125.4,91.88,124.8,91.88z"/>
		
			<animate  accumulate="none" additive="replace" attributeName="fill" begin="o1.begin+4.35s" calcMode="linear" dur="1s" fill="remove" restart="always" values="#1F36C7;#9C44C0;#1F36C7">
			</animate>
	</g>
	<path id="heart" class="st1" d="M179.3,93.68c1.8,0,3.2,2.3,3.2,5c0,2.9-1.4,6-3.8,8.2c0-4.8-5.9-3.3-5.9-6.8
		c0-1.5,1.1-2.5,2.4-2.5c1.1,0,2,0.3,2.7,1c-0.6-0.6-1-1.5-1-2.3C176.9,94.98,177.7,93.68,179.3,93.68L179.3,93.68z	">
<animate  accumulate="none" additive="replace" attributeName="fill" begin="o1.begin+4.4s" calcMode="linear" dur="1s" fill="remove" restart="always" values="#1F36C7;#EB0000;#1F36C7">
			</animate>
	</path>
	<path id="flower" class="st1" d="M108.5,98.58c-0.5,0.1-0.9,0.2-1.2,0.5c-0.3-1.1-1.3-2.1-2.7-1.8c-1.2,0.2-2.1,1.3-1.9,2.7
		c0,0.2,0.1,0.5,0.2,0.7c0,0-0.2,0-0.4,0.1c-1,0.2-2.2,1.2-2,2.7c0.2,1.3,1.3,2.2,2.6,2.1c0.5-0.1,0.9-0.2,1.2-0.4
		c0.3,1.2,1.3,1.9,2.6,1.8c1.3-0.2,2.2-1.3,2.1-2.6c0-0.4-0.1-0.6-0.2-0.8h0.3c1.3-0.3,2.2-1.3,2.1-2.6
		C110.8,99.38,109.7,98.38,108.5,98.58L108.5,98.58z M105.9,103.48c-0.8,0.1-1.4-0.5-1.5-1.2c-0.1-0.8,0.4-1.5,1.2-1.6
		c0.8-0.1,1.4,0.5,1.5,1.2C107.2,102.68,106.7,103.38,105.9,103.48z	">
<animate  accumulate="none" additive="replace" attributeName="fill" begin="o1.begin+4.45s" calcMode="linear" dur="1s" fill="remove" restart="always" values="#1F36C7;#F752C7;#1F36C7">
			</animate>
	</path>
	<g id="transformation">
		<path class="st1" d="M173.3,92.58c0-0.5,1.2-1.7,1.2-2.1c0-0.1-0.1-0.2-0.2-0.2c-0.5,0-2.2,1.3-4.7,1.3c-1,0-1.7-0.1-1.7-0.9
			c0-0.7,0.6-1.3,1.6-1.7c1.1-0.5,3.3-0.5,3.3-1c0-0.4-2.1-0.4-2.1-0.8c0-0.5,0.8-1.7,0.8-2.2c0,0,0-0.2-0.1-0.2
			c-0.4,0-1.4,1.2-2,1.2s-1.1-1.5-1.6-1.5c-0.1,0-0.3,0.1-0.3,0.4c0,0.6,0.3,1.7,0.3,3.2c0,1.3-0.7,2.4-1.4,2.4
			c-0.9,0-1.2-1.1-1.2-2c0-1.3,0.7-2.8,0.7-4.2c0-0.3-0.1-0.4-0.3-0.4c-0.5,0-1.3,1.5-1.9,1.5c-0.4,0-1.1-1.8-1.7-1.8
			c-0.1,0-0.2,0.3-0.2,0.7c0,0.5,0.1,1.2,0.1,1.5c0,0.4-0.5,0.5-1.1,0.5c-0.4,0-1.2,0-1.2,0.3s0.8,0.6,1.5,1.1
			c1.3,0.9,3.4,1.8,3.4,3.9c0,1.9-2.7,3.2-4.6,3.6c-0.9,0.1-1.8,0.3-1.8,0.6c0,0.4,2.4,0.5,2.4,1c0,0.3-1.1,1.7-1.1,2.1
			c0,0.1,0.1,0.1,0.1,0.1c0.4,0,1.6-1,2.1-1c0.7,0,0.6,2.1,1.1,2.1c0.6,0,0.4-3.1,0.6-3.9c0.4-1.4,1.4-2.8,2.3-2.8
			c1.1,0,1.2,1.9,1.2,2.8c0,1.8-1.3,3.7-1.3,4.6c0,0.1,0.1,0.2,0.2,0.2c0.4,0,1.3-1.2,1.8-1.2s1.6,2,2,2c0.2,0,0.3-0.2,0.3-0.4
			c0-0.6-0.3-1.6-0.3-2.2c0-0.7,2.3-0.3,2.3-0.8c0-0.2-1-0.6-1.6-1c-1.3-0.8-2.8-2.5-2.8-3.9c0-0.5,0.3-0.9,0.7-0.9
			c2.8,0,4,4.3,4.5,4.3s0.2-1.9,0.4-2.2c0.1-0.1,0.4-0.2,0.7-0.2c0.5,0,1.1,0.1,1.5,0.1c0.3,0,0.4,0,0.4-0.1
			C175.5,93.88,173.3,93.18,173.3,92.58L173.3,92.58z"/>
		<path class="st1" d="M162.2,91.38c0-0.9-3.9-3.9-4.7-3.9c-0.2,0-0.3,0.1-0.3,0.3c0,0.3,0.1,0.7,0.1,1c0,0.7-0.3,0.8-1,0.8
			c-0.8,0-2.1-0.3-2.1-1.6c0-2.5,4.8-1.9,5.3-4.2c-2.1,0-3.1-1.4-4.5-1.4c-0.5,0-1.5,0.3-1.5,1.6c0,0.4,0.1,1.1,0.1,1.7
			s-0.1,1-0.8,1c-0.6,0-0.7-0.7-0.7-1.5c0-0.7,0.1-1.5,0.1-2c0-3.7-4.1-2.2-4.5-5.2c-1,1.8-1.3,3.1-1.3,4.2c0,3.9,5.3,3.5,5.3,6.2
			c0,0.7-0.5,1.1-1,1.1c-0.9,0-1.5-1.9-2.9-1.9c-0.7,0-1.2,0.5-1.2,1.6c0,0.8,0.2,1.4,0.2,2.2c0,1.6-0.7,2.3-1.4,3
			c4.8-0.4,5.1-4,6.5-4c0.4,0,0.6,0.3,0.6,0.5c0,0.6-1,1.6-1,2.6c0,1.3,1.5,2,2.5,2c1.2,0,1.6-0.4,1.6-1.2c0-0.9-1.6-2.1-1.6-3.1
			c0-0.5,0.5-0.6,1.2-0.6c1.5,0,2,0.2,2,0.5c0,0.4-0.6,1.2-0.6,1.4c0,0.1,0.1,0.4,0.4,0.4C158.1,93.08,162.2,92.18,162.2,91.38z"/>
		
			<animate  accumulate="none" additive="replace" attributeName="fill" begin="o1.begin+4.5s" calcMode="linear" dur="1s" fill="remove" restart="always" values="#1F36C7;#00D7C4;#1F36C7">
			</animate>
	</g>
	<path id="hair" class="st1" d="M111.7,77.88c-0.7,1.3-0.9,3-0.9,4c0,6.1,7.3,11.8,7.3,15.6c0,1.5-1.1,3.3-3.1,3.3
		c-1.8,0-2.8-1.4-2.8-2.6c0-0.9,0.6-1.7,0.9-1.7c0.1,0,0.1,0.1,0.1,0.3c0,0.5,0.4,1.2,1.2,1.1c0.8,0,1.2-0.5,1.2-1.2
		c0-3-6-8.2-6-15.3c-0.3,0.8-0.7,1.8-0.7,3.3c0,3.4,2.5,7,2.5,10.3c0,1.3-1,2.5-2.3,2.5c-1.5,0-2-1.2-2-1.9c0-0.5,0.2-1,0.4-1
		s0.1,0.8,0.9,0.8c0.9,0,1.2-0.6,1.2-1.7c0-3-1.7-5.1-1.7-8.2c0-0.5,0-1,0.1-1.4c-0.9,1.1-1,2.7-1,4.1v3.7c0,2.5-1.2,3.6-2.7,3.6
		c-1,0-1.9-0.8-1.9-2.1c0-0.2,0.1-0.8,0.3-0.8c0.3,0,0.5,0.8,1.3,0.8c1.6,0,1.7-1.5,1.7-4.6C105.5,84.98,106.9,80.88,111.7,77.88
		L111.7,77.88z	">
<animate  accumulate="none" additive="replace" attributeName="fill" begin="o1.begin+4.55s" calcMode="linear" dur="1s" fill="remove" restart="always" values="#1F36C7;#CF98D9;#1F36C7">
			</animate>
	</path>
	<path id="hand" class="st1" d="M101.8,76.08c0.5,0,0.7,0.5,0.7,0.9c0,1.7-2.2,6.7-2.2,8.1c0,0.2,0.1,0.4,0.3,0.4
		c0.9,0,2.7-3.9,3.3-5.8c0.3-1,0.8-1.5,1.2-1.5c0.4,0,0.7,0.4,0.7,1.2c0,1.9-1.8,6.5-3.4,9.5c-1.2,2.4-3.2,5.8-3.2,7.7
		c0,1,0.2,2,1.6,3.2c-2.3-0.1-3.3-0.4-4.2-2.1c-3.9,7.6,7.2,6.9,3.4,13.7c-0.7-1.2-6.2-2.5-6.2-9.6c0-6.1,5.5-9.7,5.5-12.3
		c0-0.5-0.2-0.9-0.7-1.3c-1.2-1-1.2-1.8-2.2-1.8c-0.7,0-1.5,1.6-0.7,3c0.3,0.5,0.5,0.8,0.5,1.2c0,1-1.6,3.7-2.7,3.7
		c-1.1,0-2-2.8-2-7.2c0-3.9,0.9-7.9,2-7.9c0.3,0,0.4,0.2,0.4,0.5c0,0.5-0.1,1.4-0.1,3c0,1.7,0.4,1.8,0.7,1.8c1.2,0,1-7.5,3-7.5
		c0.5,0,0.6,0.5,0.6,1c0,1.7-0.8,4.2-0.8,5.5c0,0.7,0.2,0.9,0.5,0.9C98.8,84.28,100.3,76.08,101.8,76.08L101.8,76.08z	">
<animate  accumulate="none" additive="replace" attributeName="fill" begin="o1.begin+4.6s" calcMode="linear" dur="1s" fill="remove" restart="always" values="#1F36C7;#FFC000;#1F36C7">
			</animate>
	</path>
	<path id="plant" class="st1" d="M183.1,85.88c-1.7,0-2.6,3-4.3,3.1c1-4.3,5.3-6.6,5.3-10.6c0-4.6-3.8-6.2-5.4-7.2
		c-2.6-3.8-4.5-6.8-8.8-6.8c-1.8,0-3,0.3-4.2,0.3c-2.4,0-3.2-0.9-3.3-0.9c0,0-0.1,0-0.1,0.2c0,3.4,1.8,11,9.4,11
		c4.1,0,5.8-1.6,6.8-1.6s4.3,1.1,4.3,5c0,2.1-1.7,4.3-2.3,4.3s-1.2-1-1.2-2c0-1.1,0.6-3.2,0.6-4.5c0-0.5-0.1-0.7-0.4-0.7
		c-0.6,0-3.7,2-3.7,4.4c0,2.1,3.1,3.4,4.3,4c-1.2,1.9-1.9,3.2-2.4,5c0-1.4-1.3-4.1-1.7-5.3c-1.9-5.4-2.6-6.4-6.7-6.9
		c0.6,2.2,7.6,7.4,7.6,12.7c0,0.3,0,0.8-0.1,1c-2.1-6.2-5.7-7.7-7-9.2c-2.1-2.4-0.9-4.7-4.3-6c0.2,0.3,0.3,0.7,0.3,1
		c0,1.2-0.6,2.6-0.6,3.6c0,3.8,4.3,2.6,6.9,4.7c2.5,2,3.9,5.3,4.9,9c1-1.6,1.6-3.6,3.3-3.6c1.1,0,1.5,1.4,1.5,2.5v0.5
		c1.7-1.5,2.6-3.9,2.6-5.5C184.3,86.58,183.9,85.88,183.1,85.88L183.1,85.88z M176.3,71.78c-0.4,0-1-0.2-1.5-0.2
		c-1.2,0-2.1,1.7-2.7,1.7c-0.2,0-0.3-0.2-0.3-0.4c0-0.7,1.2-1.5,1.2-2c0-0.3-0.5-0.4-0.7-0.4c-1.2,0-2.9,1.7-3.9,1.7
		c-0.2,0-0.4-0.1-0.4-0.3c0-0.5,1.3-1.1,1.3-1.6s-0.5-0.5-0.9-0.5c-0.6,0-1.8,0.3-2.5,0.3c-0.4,0-0.7-0.1-0.7-0.4
		c0-0.7,2.3-0.3,2.3-1.1c0-0.4-0.7-1.2-0.7-1.6c0-0.2,0.2-0.3,0.4-0.3c0.8,0,1.7,2.3,2.6,2.3c0.4,0,0.5-0.3,0.5-0.8
		s-0.1-0.7-0.1-1.1s0.2-0.5,0.3-0.5c0.6,0,1.1,3.2,2.8,3.2c0.7,0,0.2-2,0.9-2c0.4,0,0.5,0.6,0.5,0.9c0.2,2.1,2.1,2.2,2.1,3
		C176.7,71.58,176.6,71.78,176.3,71.78L176.3,71.78z	">
<animate  accumulate="none" additive="replace" attributeName="fill" begin="o1.begin+4.65s" calcMode="linear" dur="1s" fill="remove" restart="always" values="#1F36C7;#00D7C4;#1F36C7">
			</animate>
	</path>
	<g id="particles">
		<path class="st1" d="M152.4,67.08c0.8,0,1.4,0.6,1.4,1.3c0,0.7-0.6,1.3-1.4,1.3c-0.7,0-1.4-0.6-1.4-1.3
			C151,67.68,151.7,67.08,152.4,67.08z M161.6,79.68c-0.7,0-1.4,0.6-1.4,1.3c0,0.8,0.7,1.3,1.4,1.3c0.8,0,1.4-0.6,1.4-1.4
			C163,80.18,162.4,79.68,161.6,79.68z M157,77.18c-1.4,0-2.5,1.1-2.5,2.4s1.1,2.4,2.5,2.4c1.4,0,2.5-1.1,2.5-2.4
			S158.4,77.18,157,77.18z M152.6,76.08c-0.8,0-1.4,0.6-1.4,1.4s0.7,1.4,1.4,1.4c0.8,0,1.4-0.6,1.4-1.4S153.4,76.08,152.6,76.08z
			 M161.4,78.28c0.9,0,1.7-0.7,1.7-1.6s-0.8-1.6-1.7-1.6s-1.7,0.7-1.7,1.6C159.7,77.48,160.5,78.28,161.4,78.28z M148.4,73.18
			c-1.1,0-2.1,0.9-2.1,2s0.9,2,2.1,2c1.1,0,2.1-0.9,2.1-2C150.4,74.08,149.5,73.18,148.4,73.18z M155.9,74.68c0,0.8,0.6,1.4,1.4,1.4
			c0.8,0,1.4-0.6,1.4-1.4s-0.6-1.4-1.4-1.4C156.5,73.28,155.9,73.98,155.9,74.68z M153.1,75.08c1.2,0,2.2-0.9,2.2-2.1
			s-1-2.1-2.2-2.1s-2.2,0.9-2.2,2.1C150.9,74.08,151.8,75.08,153.1,75.08z M161.1,73.68c0.8,0,1.5-0.7,1.5-1.5s-0.7-1.5-1.5-1.4
			c-0.8,0-1.5,0.7-1.5,1.5S160.3,73.68,161.1,73.68z M149,71.68c0.8,0,1.4-0.6,1.4-1.4s-0.6-1.4-1.4-1.4c-0.8,0-1.4,0.6-1.4,1.4
			C147.5,71.08,148.2,71.68,149,71.68z M157.2,71.58c1.3,0,2.3-1,2.3-2.2s-1-2.2-2.3-2.2s-2.3,1-2.3,2.2S155.9,71.58,157.2,71.58z
			 M158.9,66.38c0.8,0,1.4-0.6,1.4-1.3c0-0.7-0.6-1.3-1.4-1.3c-0.8,0-1.4,0.6-1.4,1.3C157.6,65.88,158.2,66.38,158.9,66.38z"/>
		
			<animate  accumulate="none" additive="replace" attributeName="fill" begin="o1.begin+4.7s" calcMode="linear" dur="1s" fill="remove" restart="always" values="#1F36C7;#FFA91F;#1F36C7">
			</animate>
	</g>
	<path id="tree" class="st1" d="M118.5,68.18c0.9,0,2.5,1.5,2.9,3.1c-0.2,0-0.4-0.1-0.5-0.1c-1.2,0-1.8,1.1-2.7,3
		c2.1-1.4,4-2.5,6.2-2.5c1.9,0,3.4,1.1,3.4,2.8c0,0.7-0.4,1.5-0.8,2.3c-0.3-1.6-1.6-2.3-3.9-2.3c-1.3,0-2.9,0.2-4.2,0.7
		c4.1,0.6,4.7,2,4.7,3.3c0,2.2-2.3,3.3-3.8,4c0.1-0.6,0.3-1.3,0.3-2c0-1.3-0.5-2.9-2.6-4.3c-0.3,1.4-1.5,2.3-1.5,3.4
		c0,0.4,0.3,0.6,0.5,0.6c0,0.6-0.3,2.4-0.3,2.9c0,0.9,0.2,1.1,0.7,1.2c0.3,0.8,0.3,2.2,0.5,2.9c0.1,0.4,0.4,0.5,0.7,0.5
		c0.3,0.7,0.7,1.8,1.3,2.2c0.1,0.1,0.3,0.4,0.3,0.6c0,0.6-1,1.3-1.6,1.3c-0.2,0-0.5-0.1-0.8-0.8c-0.2-0.5-2-1.6-2.1-2.2
		c0.1-0.1,0.2-0.3,0.2-0.6c0-1-1.6-2.1-1.6-3.7c0.2-0.1,0.4-0.4,0.4-0.7c0-0.9-0.9-2.6-0.9-3.8c0.4,0,0.6,0,0.6-0.6
		c0.1-1.2,0.3-2.9,1.4-3.9c-0.3,0-0.6-0.1-1-0.1c-2.2,0-5.5,1.2-6.8,4c-0.1-0.4-0.1-0.8-0.1-1.2c0-2.3,1.4-3.8,2.5-4.3
		c0.5-0.2,1.2-0.3,1.9-0.3c1.2,0,2.5,0.2,3.9,0.5c-1.2-1.6-3.1-2.7-4.7-2.7c-0.7,0-1.3,0.2-1.5,0.8c-0.1-0.3-0.1-0.8-0.1-1.2
		c0-1.7,0.6-2.7,2.1-2.7c2.2,0,4.2,2.6,5.3,5v-0.3c0-3.4,0.1-5.1,1.5-5.2L118.5,68.18L118.5,68.18z	">
<animate  accumulate="none" additive="replace" attributeName="fill" begin="o1.begin+4.75s" calcMode="linear" dur="1s" fill="remove" restart="always" values="#1F36C7;#00D7C4;#1F36C7">
			</animate>
	</path>
	<g id="bee">
		<path class="st1" d="M90.7,73.88c0,2.7,0.9,4,2.4,4c1.2,0,2.8-0.8,4.7-2.4c-1.5,0.3-2.6,0.5-3.6,0.5
			C92.9,75.98,91.8,75.48,90.7,73.88z M101.1,70.18c-0.9,0.2-2.6,1.2-2.6,3c0,1.3,1,2.1,2.3,2.1c0.7,0,1.2-0.1,1.5-0.4
			c-1-1-1.4-2-1.4-3.1C100.9,71.08,101,70.58,101.1,70.18z M104.2,67.28c-0.8,0.9-1.7,2.5-1.7,4.1c0,1.9,1.2,3.5,3.1,3.5
			c1.8,0,2.7-1.5,2.7-3C108.4,69.48,106.1,67.78,104.2,67.28z M92,70.68v0.5c0,1.7,0.9,2.6,2.2,2.6c0.9,0,2-0.5,3-1.7
			c-0.4,0.1-0.9,0.1-1.3,0.1C94.4,72.28,92.9,71.88,92,70.68z M99.4,61.48c-1.2,0-2.7,0.1-4.3,1.1c-3.2,2-2.8,5.2-3.3,6.1
			c-0.1,0.1-0.1,0.2-0.1,0.4c0,0.3,0.4,0.7,0.7,0.7s0.5-0.1,0.6-0.1c0.9,0,1.9,0.6,3.4,0.6c0.9,0,1.9-0.3,3.1-0.9
			c2.7-1.3,3.7-4.5,3.7-5c0-0.7-0.6-0.6-1-1.2c-0.5-0.6-0.3-1.2-0.6-1.5c-0.2-0.2-0.7-0.2-1.4-0.2
			C100.2,61.48,99.4,61.48,99.4,61.48z M97.2,68.58c-1.2,0-2.6-1.5-2.6-2.8c0-0.7,0.6-1.6,1-1.6c0.1,0,0.2,0.1,0.3,0.4
			c0.2,1.7,1.4,2.7,2.5,3.2c0.1,0.1,0.2,0.1,0.2,0.2C98.5,68.28,97.8,68.58,97.2,68.58z M101.6,65.28c0,0.5-0.3,1.1-0.9,1.1
			c-1.3,0-2.3-1.9-2.4-3c0-0.7,0.4-0.7,1-0.7c0.3,0,0.4,0,0.6,0.1c0.3,0.2,0.3,0.9,0.7,1.4C100.9,64.58,101.6,64.98,101.6,65.28z
			 M104.4,63.68c0,0.8,0.7,1.4,1.5,1.4s1.5-0.6,1.5-1.4s-0.7-1.4-1.5-1.4C105.1,62.18,104.4,62.88,104.4,63.68z M103.9,61.88
			c0.8,0,1.5-0.6,1.5-1.4s-0.7-1.4-1.5-1.4s-1.5,0.6-1.5,1.4C102.5,61.18,103.1,61.88,103.9,61.88z M93.8,61.18
			c1.3,0,2.4-0.8,2.4-0.8c-2.2-0.6-3.4-2.1-3.4-4.2v-0.6c-1.4,0.6-2,1.7-2,2.8C90.9,60.08,92.2,61.18,93.8,61.18z M100.3,59.58
			c0.2-0.6,0.3-1.3,0.3-2.1c0-1.7-0.8-4.3-3.4-4.3c-1.5,0-2.5,1.1-2.5,2.4C94.8,58.48,97.8,59.58,100.3,59.58z"/>
		
			<animate  accumulate="none" additive="replace" attributeName="fill" begin="o1.begin+4.8s" calcMode="linear" dur="1s" fill="remove" restart="always" values="#1F36C7;#FFE300;#1F36C7">
			</animate>
	</g>
	<g id="ice_cream">
		<path class="st1" d="M182.5,58.68c-1.6,3.2-5.6,3.9-6.9,3.7c0.4,3.3,5.3,7.7,6.6,7.6c0.9-0.1,1.2-4.3,1.2-7.6
			C183.4,60.48,183.5,58.98,182.5,58.68L182.5,58.68z M182.6,55.58c0-1.2-0.5-2.1-1.9-2.3c0.2,0.3,0.3,0.6,0.3,1.1
			c0,1.9-2.8,4-5.9,4c-1.1,0-1.5,0.8-1.4,1.2c0,1,0.9,1.4,2.2,1.4C179.4,60.88,182.6,58.08,182.6,55.58L182.6,55.58z"/>
		<path class="st1" d="M175.1,57.08c1.4,0,4.4-1.2,4.4-2.8c0-0.5-0.2-1-1-1c-1.1,0-2.6,1.1-4.1,1.1c-0.5,0-1.1,0-1.7-0.2
			c0.6,0.4,0.5,1.4,0.8,2.1C174,57.08,174.6,57.08,175.1,57.08z"/>
		
			<animate  accumulate="none" additive="replace" attributeName="fill" begin="o1.begin+4.85s" calcMode="linear" dur="1s" fill="remove" restart="always" values="#1F36C7;#F752C7;#1F36C7">
			</animate>
	</g>
	<g id="cycle">
		<path class="st1" d="M156.3,57.88c0,3.2-2.2,4.5-4.2,4.5c-0.5,0-0.9-0.1-1.3-0.3c0.4-0.4,0.8-1,0.8-1.4c0-0.3-0.2-0.4-0.5-0.4
			c-0.2,0-0.7,0.1-1.1,0.1c-1,0-1.8-0.4-2.7-1.3c-0.6,0.9-0.9,2.1-0.9,3.3c0,1.9,0.7,3.8,1.5,3.9c0.4,0,0.4-1.3,1.1-1.3
			c0.2,0,1,0.6,2.7,0.6c2.5,0,5.3-1.5,5.3-5.4C156.9,59.68,156.7,58.48,156.3,57.88L156.3,57.88z"/>
		<path class="st1" d="M150.6,55.88c0.5,0,1.5,0.2,1.8,0.7c-0.4,0.2-0.8,0.7-0.8,1.1c0,0.2,0.1,0.4,0.3,0.5c0.9,0.4,1.4,1.1,1.7,1.7
			c1.6-0.9,2.2-3.4,2.2-4.8c0-0.4,0-1-0.4-1c-0.3,0-0.6,0.4-1,0.4c-0.3,0-1.2-1.2-3.4-1.2c-2.5,0-3.6,1.9-3.6,3.5
			c0,0.4,0.1,0.9,0.2,1.2C148.1,56.98,149.1,55.88,150.6,55.88L150.6,55.88z"/>
		
			<animate  accumulate="none" additive="replace" attributeName="fill" begin="o1.begin+4.9s" calcMode="linear" dur="1s" fill="remove" restart="always" values="#1F36C7;#47C8FF;#1F36C7">
			</animate>
	</g>
	<path id="DNA" class="st1" d="M125.3,57.98c-1.8,0-3.4,1.5-4.6,3.5c0.1-0.4,0.1-0.8,0.1-1.2c0-2.8-1.5-5.2-4.2-5.2
		c-2.2,0-4.3,1.3-5.1,3.9c0.2-0.2,1-0.7,1.6-0.7c0.7,0,0.9,0.6,0.9,1.6c0,0.6-0.1,1.4-0.4,2.1c-0.4,1.2-1.2,1.5-1.6,1.5
		c-1.7,0-0.9-2.9-1.8-2.9c-0.7,0-0.9,1.6-0.9,2.2c0,2,1.3,4.1,4.2,4.1c3.1,0,4.8-1.5,6.6-3.4c0.4,2.1,1.5,5.8,4.6,5.8
		c1.7,0,2.9-1.4,3-3.1c-0.2,0.2-0.5,0.4-0.9,0.4c-0.6,0-0.8-0.9-0.8-1.7c0-1.3,0.4-2.7,1-2.7c0.3,0,0.5,0.2,0.6,1.2
		c0.1,0.7,0,1.6,0.5,1.6s0.7-1.5,0.7-2.4C128.7,59.98,127.6,57.88,125.3,57.98L125.3,57.98z M115,64.78c-0.3,0-0.4-0.3-0.4-0.5
		c0-1.4,1.5-7.6,2.6-7.6c0.2,0,0.3,0.2,0.3,0.5C117.5,58.28,116.2,64.78,115,64.78z M119.6,62.08c-0.9,1-1.4,1.5-1.8,1.5
		c-0.2,0-0.4-0.4-0.4-0.8c0-0.7,0.5-3.6,1.6-3.6c0.4,0,0.7,0.8,0.7,1.5C119.7,61.28,119.7,61.68,119.6,62.08z M121.7,64.58
		c-0.3,0-0.6-0.6-0.6-1.8c0.6-1,0.9-1.4,1.3-1.4c0.1,0,0.3,0.1,0.3,0.7C122.6,63.38,122.1,64.58,121.7,64.58z M123.5,66.68
		c-0.2,0-0.4-0.3-0.4-1.1c0-1.9,1.2-5.4,1.9-5.4c0.2,0,0.3,0.5,0.3,1C125.4,63.28,124.4,66.68,123.5,66.68z	">
<animate  accumulate="none" additive="replace" attributeName="fill" begin="o1.begin+4.95s" calcMode="linear" dur="1s" fill="remove" restart="always" values="#1F36C7;#E60067;#1F36C7">
			</animate>
	</path>
	<path id="lips" class="st1" d="M169.4,53.88c-0.7,0-1.8,0.8-2.6,0.8c-1.1,0-0.8-1.5-2-1.5c-0.3,0-0.6,0.1-0.9,0.3
		c-2.5,1.3-4.5,0.8-4.9,1.1c-0.1,0.1-0.2,0.1-0.2,0.4c0,2.8,2.8,7,7.4,7c3.2,0,5.8-1.1,5.8-3C171.9,57.38,170.4,53.88,169.4,53.88z
		 M166.5,59.28c-2.6,0-4.2-1.5-4.2-2.4c0-0.1,0.1-0.2,0.2-0.2c0.4,0,1.5,0.6,3,0.8c1.7,0.3,2.6,0.3,3.1,0.3s0.7,0.1,0.7,0.3
		C169.2,58.58,168,59.28,166.5,59.28z	">
<animate  accumulate="none" additive="replace" attributeName="fill" begin="o1.begin+5s" calcMode="linear" dur="1s" fill="remove" restart="always" values="#1F36C7;#EB0000;#1F36C7">
			</animate>
	</path>
	<path id="dove" class="st1" d="M183.4,37.08c-1.8,0-2-0.5-3.2-0.5c-1.4,0-2.4,1-2.4,2.5c0,0.5,0.2,1.3,0.2,2.3
		c0,1.2-0.2,2.4-1.3,2.4c-1,0-1.4-0.7-1.4-1.5c0-1.4,0.7-2.4,0.7-3.3c0-1.7-2-2.2-4.2-2.2c-2.6,0-5.4,0.7-5.4,1.1
		c0,0.6,3.7,0.2,6.4,3.7c-1.7,0-5,0.8-5,1.3c0,0.6,6,1.2,6,3.7c0,1.6-1.3,1.8-1.8,1.8c-2,0-3-2.1-3.5-2.1c-0.1,0-0.3,0.1-0.3,0.3
		c0,0.3,0.3,1.2,0.3,2.1c0,2.3-2.5,2.5-2.5,3c0,0.2,0.1,0.2,0.4,0.3c1.8,0.3,3.7,0.4,5.4,0.4c6.4,0,11.5-2,11.5-7.6
		c0-3.1-1-4.1-1-5.6C182.1,38.68,182.5,37.58,183.4,37.08z M174.5,49.28h-1.3c4.1-0.7,6.4-3.1,6.4-6.3c0.9,0.3,1.5,1.2,1.5,2.2
		C181,47.08,179.3,49.28,174.5,49.28L174.5,49.28z M180.2,39.58c-0.5,0-0.9-0.4-0.9-0.9s0.4-0.9,0.9-0.9s0.9,0.4,0.9,0.9
		S180.7,39.58,180.2,39.58z	">
<animate  accumulate="none" additive="replace" attributeName="fill" begin="o1.begin+5.05s" calcMode="linear" dur="1s" fill="remove" restart="always" values="#1F36C7;#00D7C4;#1F36C7">
			</animate>
	</path>
	<path id="spark" class="st1" d="M158.5,35.88c-2.4,0-4.2,1.2-5.2,1.2c-0.6,0-1.4-1.4-1.9-1.4c-0.2,0-0.4,0.4-0.4,1v0.2
		c0,0.5-0.1,1.4-0.4,1.4c-0.9,0-4.3-2.4-4.3-1.6c0,0.8,2.3,3.3,2.3,3.9c0,0.6-2.2,1.2-2.2,1.7c0,0.8,2.4,0.9,2.4,1.9
		s-2.5,1.8-2.5,2.5c0,0.6,2.5,0.2,2.5,0.9s-1.8,3.2-1.8,3.9c0,0.2,0,0.2,0.2,0.2c0.7,0,2.8-2.3,3.3-2.3c0.6,0,0.7,1.4,0.8,2.2
		c0.1,0.4,0.1,0.5,0.3,0.5c0.4,0,1.1-1.6,1.6-1.6c0.7,0,2.5,1.9,5.6,1.9c4.4,0,8.5-3,8.5-8.3C167.4,38.88,163.6,35.88,158.5,35.88
		L158.5,35.88z M152.4,47.28c-0.1,0-0.2-0.1-0.2-0.3l-0.1-1.4c0-0.1-0.1-0.3-0.3-0.3h-1.5c-0.2,0-0.3,0-0.3-0.1
		c0-0.3,1.5-1.3,1.5-1.5c0-0.4-1.4-1.1-1.4-1.6c0-0.1,0.1-0.1,0.2-0.1c0.4,0,1.1,0.1,1.6,0.1s0.5-2,0.9-2c0.3,0,0.7,1.9,1.1,1.9
		c0.5,0,1.3-0.5,1.7-0.5c0.1,0,0.1,0,0.1,0.1c0,0.2-0.9,1.2-0.9,1.5s2,0.7,2,1c0,0.4-2.1,0.3-2.1,0.6c0,0.2,0.8,1.2,0.8,1.6
		c0,0.1,0,0.1-0.1,0.1c-0.3,0-1.4-0.5-1.7-0.5C153.3,45.88,152.7,47.28,152.4,47.28z M158.6,50.38c-2.5,0-4.2-1.2-4.2-1.9
		c0-0.3,0.2-0.5,0.5-0.5c0.8,0,2.5,1.2,3.1,1.2c0.1,0,0.3-0.1,0.3-0.3c0-0.6-0.6-1.7-0.6-2.2c0-0.1,0.1-0.2,0.3-0.2
		c1,0,2.4,0.4,3.2,0.4c0.3,0,0.3-0.1,0.3-0.3c0-0.8-2.4-2.3-2.4-2.8c0-0.4,2.9-1.1,2.9-1.7c0-0.7-4-0.2-4-0.9c0-0.5,0.8-1.3,0.8-1.7
		c0-0.2-0.1-0.2-0.4-0.2c-0.3,0-2.1,0.7-2.8,0.7c-0.4,0-0.8-0.1-0.8-0.6c0-0.8,1.4-1.7,3.6-1.7c3.6,0,5.7,2.4,5.7,6.4
		C164.2,49.08,160.6,50.38,158.6,50.38z	">
<animate  accumulate="none" additive="replace" attributeName="fill" begin="o1.begin+5.1s" calcMode="linear" dur="1.5s" fill="remove" restart="always" values="#1F36C7;#FCA6DE;#1F36C7">
			</animate>
	</path>
	<g id="sun">
		<path class="st1" d="M120.6,46.08c1.4,0,5.6,1.9,7.5,1.9c0.7,0,1.1-0.4,1.1-0.8c0-2.2-5.9-6.1-6-7.7c0-0.2,0.1-0.3,0.2-0.4
			c1-1.1,5.2-1.8,5.2-2.7c0-0.5-0.9-0.5-1.3-0.5c-3.4,0-8.3,1.2-8.3,2.4s4.4,4.2,4.4,5.7c0,0.4-0.3,0.5-0.7,0.5
			c-1.2,0-3.9-1.5-5.2-1.5c-0.6,0-0.8,0.4-0.8,1c0,1.7,2.1,5,2.1,6c0,0.1,0,0.3-0.2,0.3c-0.7,0-3.7-3.6-4.8-3.6
			c-0.4,0-0.4,0.5-0.4,1.3v1.2c0,0.8,0,1.3-0.4,1.3c-0.9,0-1.4-2.6-2.3-2.6s-1.1,4.7-2,4.7c-1.1,0-0.2-5.1-1.2-5.1
			c-1.1,0-2.4,3.4-3.2,3.4c-0.3,0-0.4-0.3-0.4-0.5c0-1,0.6-2.7,0.6-3.7c0-0.5-0.1-0.8-0.6-0.8c-1.1,0-3.6,1.8-4.5,1.8
			c-0.1,0-0.3-0.1-0.3-0.2c0-0.9,4-3.6,4-4.8s-5.5-0.4-5.5-1.8c0-1.1,3.9-2.3,3.9-3.5c0-1-4.6-1.5-6.4-1.5c-2.1,0-3.3,0.3-3.3,0.9
			c0,0.9,4.9,1.2,4.9,2s-5.1,2.9-5.1,4.1c0,1.1,7.1,0.1,7.1,1.2c0,1.2-6.2,6.5-6.2,8.3c0,0.4,0.3,0.6,0.7,0.6c1.9,0,6.8-3.6,8.1-3.6
			c0.5,0,0.5,0.6,0.5,1.1c0,0.9-0.3,2.4-0.3,3.4c0,0.8,0.2,1.4,0.9,1.4c1.3,0,2.6-2.3,3.5-2.3c1.2,0,0.5,6.6,2.2,6.6
			c1.5,0,2.1-7.2,3-7.2s1.7,2.1,2.6,2.1c1.1,0,0.6-3.6,1.7-3.6c1.3,0,4.9,4.3,6.6,4.3c0.5,0,0.7-0.4,0.7-0.9c0-1.9-2.7-6.2-2.7-7.6
			C120.1,46.18,120.2,46.08,120.6,46.08L120.6,46.08z"/>
		<path class="st1" d="M122.9,48.58c-0.1,0-0.2,0.1-0.2,0.2c0,1.3,4.6,7.4,5.4,7.4c0.7,0,1.3-1.3,1.3-2.3c0-0.3-0.1-0.6-0.2-0.8
			C128.5,52.08,123.9,48.58,122.9,48.58z M96,45.08c0-0.3-0.6-0.4-1.1-0.4c-0.8,0-1.9,0.2-2.4,0.6c-0.4,0.3-0.7,1.3-0.7,2
			c0,0.4,0.1,0.8,0.5,0.8C93.2,48.18,96,45.78,96,45.08z M102.5,40.58c0.8,0,2.1-0.4,3-0.4c0.5,0,1,0.1,1,0.6c0,0.9-2,2.5-2,3.2
			c0,0.2,0.2,0.3,0.4,0.3c0.7,0,2-1.8,3.1-1.8c1.9,0,0.7,4.1,1.7,4.1c1.1,0,0.6-4,2.2-4c1.3,0,2.2,2.8,3.1,2.8
			c0.2,0,0.4-0.2,0.4-0.4c0-0.8-1.1-2.3-1.1-3.3c0-0.6,0.4-0.9,1-0.9c0.8,0,2,0.5,2.6,0.5c0.2,0,0.4-0.1,0.4-0.3
			c0-0.9-3.2-1.8-3.2-2.9c0-1.1,1.8-1.1,1.8-1.6c0-0.2-1.1-0.4-2.6-0.4c-2.4,0-2,1.9-3.9,1.9s-1.4-2-3.8-2c-1.5,0-2.8,0.3-2.8,0.6
			c0,0.4,1.7,0.2,1.7,1.4c0,1.3-3.7,1.6-3.7,2.4C101.8,40.48,102.1,40.58,102.5,40.58z M125.4,40.08c0,0.6,2.3,2,3.3,2
			c0.6,0,0.8-0.8,0.8-1.7c0-1.1-0.5-1.1-1.4-1.1C126.9,39.28,125.4,39.58,125.4,40.08z"/>
		
			<animate  accumulate="none" additive="replace" attributeName="fill" begin="o1.begin+5.15s" calcMode="linear" dur="1s" fill="remove" restart="always" values="#1F36C7;#FFE300;#1F36C7">
			</animate>
	</g>
</g>
</svg>
