<?xml version="1.0" encoding="utf-8"?>
<!-- Generator: Adobe Illustrator 27.5.0, SVG Export Plug-In . SVG Version: 6.00 Build 0)  -->
<svg version="1.1" id="katman_1" xmlns="http://www.w3.org/2000/svg" xmlns:xlink="http://www.w3.org/1999/xlink" x="0px" y="0px"
	 viewBox="0 0 841.89 595.28" style="enable-background:new 0 0 841.89 595.28;" xml:space="preserve">
<style type="text/css">
	.st0{fill:#089949;}
	.st1{fill:#F9B21D;}
	.st2{fill:#E42527;}
	.st3{fill:#226DB4;}
</style>
<g>
	<g>
		<g>
			<path class="st0" d="M382.8,394.02c-5.58,0-11.23-1.16-16.66-3.55l0,0l-115.89-51.64c-20.72-9.2-30.06-33.61-20.86-54.32
				l51.64-115.89c9.2-20.72,33.61-30.06,54.32-20.86l115.89,51.64c20.72,9.2,30.06,33.61,20.86,54.32l-51.64,115.89
				C413.58,384.97,398.51,394.02,382.8,394.02z M375.77,368.75c8.76,3.91,19.05-0.07,22.96-8.76l51.64-115.89
				c3.91-8.76-0.07-19.05-8.76-22.96l-115.96-51.64c-8.76-3.91-19.05,0.07-22.96,8.76l-51.64,115.89
				c-3.91,8.76,0.07,19.05,8.76,22.96L375.77,368.75z"/>
		</g>
		<g>
			<path class="st1" d="M746.33,394.1h-126.9c-22.67,0-41.14-18.47-41.14-41.14v-126.9c0-22.67,18.47-41.14,41.14-41.14h126.9
				c22.67,0,41.14,18.47,41.14,41.14v126.9C787.47,375.63,769,394.1,746.33,394.1z M619.43,208.67c-9.56,0-17.38,7.82-17.38,17.38
				v126.9c0,9.56,7.82,17.38,17.38,17.38h126.9c9.56,0,17.38-7.82,17.38-17.38v-126.9c0-9.56-7.82-17.38-17.38-17.38H619.43z"/>
		</g>
		<path class="st2" d="M271.11,249.31l-17.09,38.24c-0.22,0.43-0.43,0.8-0.65,1.16l6.66,41.14c1.52,9.49-4.93,18.4-14.34,19.92
			l-125.3,20.28c-4.56,0.72-9.2-0.36-12.97-3.04c-3.77-2.68-6.23-6.74-6.95-11.3L80.18,230.4c-0.72-4.56,0.36-9.2,3.04-12.97
			s6.74-6.23,11.3-6.95l125.3-20.28c0.94-0.14,1.88-0.22,2.75-0.22c8.33,0,15.79,6.08,17.17,14.63l6.74,41.43l17.67-39.62
			l-0.94-5.58c-3.62-22.38-24.77-37.66-47.15-34.04l-125.3,20.28c-10.79,1.67-20.35,7.53-26.73,16.44
			c-6.45,8.91-8.98,19.77-7.24,30.64l20.28,125.3c1.74,10.86,7.61,20.35,16.51,26.8c7.03,5.14,15.36,7.75,23.97,7.75
			c2.17,0,4.42-0.14,6.66-0.51l125.3-20.28c22.38-3.62,37.66-24.77,34.04-47.15L271.11,249.31z"/>
		<g>
			<path class="st3" d="M421.4,309.14l18.4-41.21l-5.22-38.32c-0.65-4.56,0.58-9.13,3.4-12.82c2.82-3.69,6.88-6.08,11.52-6.66
				l125.74-17.09c0.8-0.07,1.59-0.14,2.39-0.14c3.77,0,7.39,1.23,10.5,3.55c0.58,0.43,1.09,0.94,1.59,1.38
				c5.58-5.87,12.89-10.07,21.08-11.88c-2.32-3.19-5.07-6.01-8.33-8.47c-8.76-6.66-19.56-9.49-30.42-8.04l-125.88,17.09
				c-10.86,1.45-20.57,7.1-27.16,15.86c-6.66,8.76-9.49,19.56-8.04,30.42L421.4,309.14z"/>
			<path class="st3" d="M635.36,330.36l-16.51-121.68c-9.27,0.29-16.73,7.97-16.73,17.31v35.71l9.78,71.85
				c0.65,4.56-0.58,9.13-3.4,12.82c-2.82,3.69-6.88,6.08-11.52,6.66l-125.74,17.09c-4.56,0.65-9.13-0.58-12.82-3.4
				c-3.69-2.82-6.08-6.88-6.66-11.52l-5.79-42.66l-18.4,41.21l0.65,4.64c1.45,10.86,7.1,20.57,15.86,27.16
				c7.24,5.5,15.86,8.4,24.84,8.4c1.88,0,3.77-0.14,5.65-0.36l125.59-16.95c10.86-1.45,20.57-7.1,27.16-15.86
				C633.99,352.01,636.81,341.22,635.36,330.36z"/>
		</g>
	</g>
	<g>
		<path d="M280.6,454.29l17.96-26.51h-14.78c-0.8,0-1.45-0.65-1.45-1.45v-3.55c0-0.8,0.65-1.45,1.45-1.45h24.26
			c0.8,0,1.45,0.65,1.45,1.45v1.38c0,0.29-0.07,0.58-0.22,0.8l-17.6,26.51h15.79c0.8,0,1.45,0.65,1.45,1.45v3.55
			c0,0.8-0.65,1.45-1.45,1.45h-25.64c-0.8,0-1.45-0.65-1.45-1.45v-1.3C280.31,454.79,280.45,454.5,280.6,454.29z"/>
		<path d="M356.21,439.37c0-10.86,7.97-18.69,18.83-18.69c11.23,0,18.83,7.68,18.83,18.76c0,11.23-7.75,18.98-18.98,18.98
			C363.6,458.41,356.21,450.66,356.21,439.37z M385.26,439.51c0-6.59-3.19-12.24-10.36-12.24c-7.24,0-10,5.87-10,12.53
			c0,6.3,3.4,12.1,10.36,12.1C382.43,451.82,385.26,445.67,385.26,439.51z"/>
		<path d="M445.38,421.26h5.36c0.8,0,1.45,0.65,1.45,1.45v13.47h15.21v-13.47c0-0.8,0.65-1.45,1.45-1.45h5.36
			c0.8,0,1.45,0.65,1.45,1.45v33.68c0,0.8-0.65,1.45-1.45,1.45h-5.29c-0.8,0-1.45-0.65-1.45-1.45v-13.62h-15.21v13.62
			c0,0.8-0.65,1.45-1.45,1.45h-5.36c-0.8,0-1.45-0.65-1.45-1.45v-33.68C443.93,421.91,444.58,421.26,445.38,421.26z"/>
		<path d="M525.7,439.37c0-10.86,7.97-18.69,18.83-18.69c11.23,0,18.83,7.68,18.83,18.76c0,11.23-7.75,18.98-18.98,18.98
			C533.09,458.41,525.7,450.66,525.7,439.37z M554.67,439.51c0-6.59-3.19-12.24-10.36-12.24c-7.24,0-10,5.87-10,12.53
			c0,6.3,3.4,12.1,10.36,12.1C551.85,451.82,554.67,445.67,554.67,439.51z"/>
	</g>
</g>
</svg>
