
        <svg xmlns="http://www.w3.org/2000/svg" xmlns:xlink="http://www.w3.org/1999/xlink" version="1.1" width="3300" height="1545" viewBox="0 0 3300 1545">
			
			<g transform="scale(15) translate(10, 10)">
				<defs id="SvgjsDefs1431"/><g id="SvgjsG1432" featureKey="rootContainer" transform="matrix(1,0,0,1,0,0)" fill="#fff"><rect y="0" height="1" width="1" opacity="0"/><rect y="78" width="200" height="5"/></g><g id="SvgjsG1433" featureKey="nameFeature-0" transform="matrix(1.5718326891360042,0,0,1.5718326891360042,-3.458030117279451,1.7158168782298553)" fill="#fff"><path d="M2.2 30.64 l8.4 0 c0.08 3.68 1.76 4.52 5.68 4.52 c4.96 0 5.72 -1.76 5.72 -3.04 c0 -1.92 -2 -2.56 -5.32 -3.2 l-4.12 -0.8 c-4.76 -0.92 -9.76 -2.68 -9.76 -8.2 c0 -7.08 6.56 -9.56 13.16 -9.56 c10.56 0 13.56 3.24 13.84 9 l-8.16 0 c-0.24 -2.96 -2.64 -3.4 -5.16 -3.4 c-3.68 0 -5.28 1.24 -5.28 2.84 c0 1.96 2.64 2.48 5.72 3.12 l3.88 0.8 c5.28 1.08 9.6 2.8 9.6 8.52 c0 8.04 -8.12 9.52 -14.6 9.52 c-11.64 0 -13.6 -5 -13.6 -10.12 z M36.6 40 l0 -28.88 l24.8 0 l0 5.92 l-16.4 0 l0 5.36 l15.52 0 l0 5.92 l-15.52 0 l0 5.76 l16.76 0 l0 5.92 l-25.16 0 z M67.4 30.64 l8.4 0 c0.08 3.68 1.76 4.52 5.68 4.52 c4.96 0 5.72 -1.76 5.72 -3.04 c0 -1.92 -2 -2.56 -5.32 -3.2 l-4.12 -0.8 c-4.76 -0.92 -9.76 -2.68 -9.76 -8.2 c0 -7.08 6.56 -9.56 13.16 -9.56 c10.56 0 13.56 3.24 13.84 9 l-8.16 0 c-0.24 -2.96 -2.64 -3.4 -5.16 -3.4 c-3.68 0 -5.28 1.24 -5.28 2.84 c0 1.96 2.64 2.48 5.72 3.12 l3.88 0.8 c5.28 1.08 9.6 2.8 9.6 8.52 c0 8.04 -8.12 9.52 -14.6 9.52 c-11.64 0 -13.6 -5 -13.6 -10.12 z M109.92000000000002 40 l0 -22.96 l-11.12 0 l0 -5.92 l30.64 0 l0 5.92 l-11.12 0 l0 22.96 l-8.4 0 z"/></g>
			</g>
		</svg>
	